<svg width="363" height="74" viewBox="0 0 363 74" fill="none" xmlns="http://www.w3.org/2000/svg">
<path d="M34.3418 46.0546L3.80193 0.00686736H17.5638L34.3395 25.2091L51.1197 0.00459463H67.52V64.5296H55.2661V14.4091L34.344 46.0569L34.3418 46.0546ZM13.2207 64.6251H0.966797V50.2228L13.2207 31.7114V64.6251ZM84.1035 64.6251V0.00686736H96.3574V47.9501L128.025 0.00686736H142.353V64.6251H130.476V17.4546L98.9958 64.6251H84.1035ZM234.698 64.6251V0.00686736H246.952V47.9501L278.622 0.00686736H292.947V64.6251H281.07V17.8387L249.972 64.6251H234.698ZM333.683 0.00686736C351.18 -0.272678 359.837 9.67505 362.708 15.166L353.217 20.3478C348.551 10.8932 338.96 9.49096 333.683 9.7796C325.999 10.1955 313.5 15.8455 313.5 32.6728C313.5 49.4978 327.265 54.2023 334.147 54.4501C345.182 54.4501 351.399 47.7864 353.161 44.1546L362.708 49.5682C354.856 62.8205 341.739 64.5001 334.147 64.5001C311.278 64.5001 301.929 45.3296 301.929 32.6728C301.929 12.6637 316.372 0.00686736 333.683 0.00686736Z" fill="#FC4C00"/>
<path fill-rule="evenodd" clip-rule="evenodd" d="M163.842 73.9091V64.3591H213.136V73.8137H225.483V54.2227H215.116V0.00683594H166.856C166.763 47.8546 159.599 54.2227 157.62 54.2227H151.401V73.9091H163.842ZM203.052 10.05H178.355C177.789 39.9909 172.888 52.7068 170.815 54.2227H203.048V10.05H203.052Z" fill="#FC4C00"/>
</svg>
