<svg width="217" height="45" viewBox="0 0 217 45" fill="none" xmlns="http://www.w3.org/2000/svg">
<path d="M20.7932 27.6326L2.6195 0.00394952H10.8089L20.7918 15.1253L30.7774 0.00258588H40.5369V38.7176H33.2448V8.64531L20.7945 27.634L20.7932 27.6326ZM8.22444 38.7749H0.932373V30.1335L8.22444 19.0267V38.7749ZM50.4054 38.7749V0.00394952H57.6975V28.7699L76.5425 0.00394952H85.0683V38.7749H78.0009V10.4726L59.2675 38.7749H50.4054ZM140.021 38.7749V0.00394952H147.313V28.7699L166.16 0.00394952H174.684V38.7749H167.617V10.703L149.111 38.7749H140.021ZM198.925 0.00394952C209.337 -0.163778 214.489 5.80486 216.198 9.09941L210.55 12.2085C207.773 6.53577 202.066 5.6944 198.925 5.86759C194.352 6.11713 186.915 9.50713 186.915 19.6035C186.915 29.6985 195.106 32.5212 199.201 32.6699C205.768 32.6699 209.468 28.6717 210.516 26.4926L216.198 29.7408C211.525 37.6921 203.719 38.6999 199.201 38.6999C185.592 38.6999 180.029 27.1976 180.029 19.6035C180.029 7.59804 188.624 0.00394952 198.925 0.00394952Z" fill="#FC4C00"/>
<path fill-rule="evenodd" clip-rule="evenodd" d="M97.8564 44.3453V38.6153H127.19V44.288H134.537V32.5335H128.369V0.00390625H99.6498C99.5946 28.7125 95.3311 32.5335 94.1538 32.5335H90.4526V44.3453H97.8564ZM121.19 6.02982H106.492C106.156 23.9944 103.239 31.6239 102.006 32.5335H121.187V6.02982H121.19Z" fill="#FC4C00"/>
</svg>
