<svg width="34" height="33" viewBox="0 0 34 33" fill="none" xmlns="http://www.w3.org/2000/svg">
<path d="M17.0533 33C14.4953 33 12.1742 32.5797 10.0899 31.7391C8.00557 30.9225 6.2055 29.7696 4.68966 28.2806C3.19749 26.7915 2.03692 25.0382 1.20794 23.0207C0.402647 21.0033 0 18.8057 0 16.4279C0 14.0742 0.402647 11.9007 1.20794 9.90721C2.03692 7.91376 3.20933 6.17249 4.72518 4.68341C6.24103 3.19432 8.05294 2.04148 10.1609 1.22489C12.2689 0.408297 14.6137 0 17.1954 0C19.6823 0 21.9561 0.396288 24.0167 1.18886C26.0773 1.95742 27.8537 3.05022 29.3459 4.46725C30.838 5.88428 31.9868 7.55349 32.7921 9.47489C33.5974 11.3723 34 13.4498 34 15.7074C34 17.845 33.6921 19.6703 33.0763 21.1834C32.4842 22.6965 31.6433 23.8493 30.5538 24.6419C29.4643 25.4345 28.1853 25.8308 26.7168 25.8308C25.1062 25.8308 23.8272 25.3504 22.8798 24.3897C21.9324 23.429 21.4587 22.024 21.4587 20.1747V18.5175L21.5653 16.5721L21.2456 11.3483V7.88974H26.0773V19.5622C26.0773 20.4269 26.2431 21.0273 26.5747 21.3635C26.9063 21.6998 27.309 21.8679 27.7827 21.8679C28.3274 21.8679 28.7893 21.6517 29.1682 21.2194C29.5709 20.7871 29.8788 20.1266 30.092 19.238C30.3051 18.3253 30.4117 17.1725 30.4117 15.7795C30.4117 13.9541 30.092 12.2849 29.4525 10.7718C28.8366 9.25873 27.9366 7.94978 26.7524 6.84498C25.5918 5.74017 24.1944 4.89956 22.5601 4.32314C20.9495 3.72271 19.1613 3.42249 17.1954 3.42249C15.2295 3.42249 13.4295 3.74673 11.7952 4.3952C10.1609 5.04367 8.7635 5.95633 7.60293 7.13319C6.44236 8.28603 5.54232 9.65502 4.90282 11.2402C4.28701 12.8253 3.9791 14.5546 3.9791 16.4279C3.9791 18.3493 4.28701 20.1146 4.90282 21.7238C5.51863 23.309 6.39498 24.6779 7.53187 25.8308C8.69244 27.0076 10.078 27.9203 11.6886 28.5688C13.2992 29.2172 15.0874 29.5415 17.0533 29.5415C18.1902 29.5415 19.3626 29.4094 20.5705 29.1452C21.7785 28.905 22.939 28.5087 24.0522 27.9563L25.1891 31.2707C24.0996 31.8231 22.8206 32.2435 21.3521 32.5317C19.9074 32.8439 18.4744 33 17.0533 33ZM15.7743 25.8308C14.2584 25.8308 12.8729 25.4585 11.6176 24.714C10.3859 23.9454 9.403 22.8766 8.66876 21.5076C7.93452 20.1146 7.5674 18.5175 7.5674 16.7162C7.5674 14.9148 7.92268 13.3297 8.63323 11.9607C9.36747 10.5917 10.3504 9.53493 11.582 8.79039C12.8373 8.02183 14.2348 7.63755 15.7743 7.63755C17.3375 7.63755 18.6757 7.99782 19.7889 8.71834C20.9021 9.43886 21.7548 10.4716 22.3469 11.8166C22.939 13.1616 23.2351 14.7948 23.2351 16.7162C23.2351 18.6135 22.9509 20.2467 22.3824 21.6157C21.814 22.9847 20.9732 24.0295 19.86 24.75C18.7705 25.4705 17.4086 25.8308 15.7743 25.8308ZM16.8757 21.6878C17.7283 21.6878 18.4862 21.4956 19.1494 21.1114C19.8363 20.7031 20.3692 20.1266 20.7482 19.3821C21.1271 18.6376 21.3166 17.7489 21.3166 16.7162C21.3166 15.6594 21.1271 14.7707 20.7482 14.0502C20.3692 13.3297 19.8363 12.7773 19.1494 12.393C18.4862 12.0087 17.7283 11.8166 16.8757 11.8166C16.023 11.8166 15.2651 12.0087 14.6019 12.393C13.9387 12.7773 13.4176 13.3417 13.0387 14.0862C12.6597 14.8068 12.4702 15.6834 12.4702 16.7162C12.4702 17.7489 12.6597 18.6376 13.0387 19.3821C13.4176 20.1026 13.9387 20.667 14.6019 21.0753C15.2651 21.4836 16.023 21.6878 16.8757 21.6878Z" fill="#1D1B20"/>
</svg>
