<svg width="142" height="194" viewBox="0 0 142 194" fill="none" xmlns="http://www.w3.org/2000/svg">
<g clip-path="url(#clip0_2003_395)">
<path d="M3.89062 5C5.27134 5 6.39062 3.88071 6.39062 2.5C6.39062 1.11929 5.27134 0 3.89062 0C2.50991 0 1.39062 1.11929 1.39062 2.5C1.39062 3.88071 2.50991 5 3.89062 5Z" fill="#878786"/>
<path d="M30.8906 5C32.2713 5 33.3906 3.88071 33.3906 2.5C33.3906 1.11929 32.2713 0 30.8906 0C29.5099 0 28.3906 1.11929 28.3906 2.5C28.3906 3.88071 29.5099 5 30.8906 5Z" fill="#878786"/>
<path d="M57.8906 5C59.2713 5 60.3906 3.88071 60.3906 2.5C60.3906 1.11929 59.2713 0 57.8906 0C56.5099 0 55.3906 1.11929 55.3906 2.5C55.3906 3.88071 56.5099 5 57.8906 5Z" fill="#878786"/>
<path d="M84.8906 5C86.2713 5 87.3906 3.88071 87.3906 2.5C87.3906 1.11929 86.2713 0 84.8906 0C83.5099 0 82.3906 1.11929 82.3906 2.5C82.3906 3.88071 83.5099 5 84.8906 5Z" fill="#878786"/>
<path d="M111.891 5C113.272 5 114.391 3.88071 114.391 2.5C114.391 1.11929 113.272 0 111.891 0C110.51 0 109.391 1.11929 109.391 2.5C109.391 3.88071 110.51 5 111.891 5Z" fill="#878786"/>
<path d="M138.891 5C140.272 5 141.391 3.88071 141.391 2.5C141.391 1.11929 140.272 0 138.891 0C137.51 0 136.391 1.11929 136.391 2.5C136.391 3.88071 137.51 5 138.891 5Z" fill="#878786"/>
<path d="M3.89062 32C5.27134 32 6.39062 30.8807 6.39062 29.5C6.39062 28.1193 5.27134 27 3.89062 27C2.50991 27 1.39062 28.1193 1.39062 29.5C1.39062 30.8807 2.50991 32 3.89062 32Z" fill="#878786"/>
<path d="M30.8906 32C32.2713 32 33.3906 30.8807 33.3906 29.5C33.3906 28.1193 32.2713 27 30.8906 27C29.5099 27 28.3906 28.1193 28.3906 29.5C28.3906 30.8807 29.5099 32 30.8906 32Z" fill="#878786"/>
<path d="M57.8906 32C59.2713 32 60.3906 30.8807 60.3906 29.5C60.3906 28.1193 59.2713 27 57.8906 27C56.5099 27 55.3906 28.1193 55.3906 29.5C55.3906 30.8807 56.5099 32 57.8906 32Z" fill="#878786"/>
<path d="M84.8906 32C86.2713 32 87.3906 30.8807 87.3906 29.5C87.3906 28.1193 86.2713 27 84.8906 27C83.5099 27 82.3906 28.1193 82.3906 29.5C82.3906 30.8807 83.5099 32 84.8906 32Z" fill="#878786"/>
<path d="M111.891 32C113.272 32 114.391 30.8807 114.391 29.5C114.391 28.1193 113.272 27 111.891 27C110.51 27 109.391 28.1193 109.391 29.5C109.391 30.8807 110.51 32 111.891 32Z" fill="#878786"/>
<path d="M138.891 32C140.272 32 141.391 30.8807 141.391 29.5C141.391 28.1193 140.272 27 138.891 27C137.51 27 136.391 28.1193 136.391 29.5C136.391 30.8807 137.51 32 138.891 32Z" fill="#878786"/>
<path d="M3.89062 59C5.27134 59 6.39062 57.8807 6.39062 56.5C6.39062 55.1193 5.27134 54 3.89062 54C2.50991 54 1.39062 55.1193 1.39062 56.5C1.39062 57.8807 2.50991 59 3.89062 59Z" fill="#878786"/>
<path d="M30.8906 59C32.2713 59 33.3906 57.8807 33.3906 56.5C33.3906 55.1193 32.2713 54 30.8906 54C29.5099 54 28.3906 55.1193 28.3906 56.5C28.3906 57.8807 29.5099 59 30.8906 59Z" fill="#878786"/>
<path d="M57.8906 59C59.2713 59 60.3906 57.8807 60.3906 56.5C60.3906 55.1193 59.2713 54 57.8906 54C56.5099 54 55.3906 55.1193 55.3906 56.5C55.3906 57.8807 56.5099 59 57.8906 59Z" fill="#878786"/>
<path d="M84.8906 59C86.2713 59 87.3906 57.8807 87.3906 56.5C87.3906 55.1193 86.2713 54 84.8906 54C83.5099 54 82.3906 55.1193 82.3906 56.5C82.3906 57.8807 83.5099 59 84.8906 59Z" fill="#878786"/>
<path d="M111.891 59C113.272 59 114.391 57.8807 114.391 56.5C114.391 55.1193 113.272 54 111.891 54C110.51 54 109.391 55.1193 109.391 56.5C109.391 57.8807 110.51 59 111.891 59Z" fill="#878786"/>
<path d="M138.891 59C140.272 59 141.391 57.8807 141.391 56.5C141.391 55.1193 140.272 54 138.891 54C137.51 54 136.391 55.1193 136.391 56.5C136.391 57.8807 137.51 59 138.891 59Z" fill="#878786"/>
<path d="M3.89062 86C5.27134 86 6.39062 84.8807 6.39062 83.5C6.39062 82.1193 5.27134 81 3.89062 81C2.50991 81 1.39062 82.1193 1.39062 83.5C1.39062 84.8807 2.50991 86 3.89062 86Z" fill="#878786"/>
<path d="M30.8906 86C32.2713 86 33.3906 84.8807 33.3906 83.5C33.3906 82.1193 32.2713 81 30.8906 81C29.5099 81 28.3906 82.1193 28.3906 83.5C28.3906 84.8807 29.5099 86 30.8906 86Z" fill="#878786"/>
<path d="M57.8906 86C59.2713 86 60.3906 84.8807 60.3906 83.5C60.3906 82.1193 59.2713 81 57.8906 81C56.5099 81 55.3906 82.1193 55.3906 83.5C55.3906 84.8807 56.5099 86 57.8906 86Z" fill="#878786"/>
<path d="M84.8906 86C86.2713 86 87.3906 84.8807 87.3906 83.5C87.3906 82.1193 86.2713 81 84.8906 81C83.5099 81 82.3906 82.1193 82.3906 83.5C82.3906 84.8807 83.5099 86 84.8906 86Z" fill="#878786"/>
<path d="M111.891 86C113.272 86 114.391 84.8807 114.391 83.5C114.391 82.1193 113.272 81 111.891 81C110.51 81 109.391 82.1193 109.391 83.5C109.391 84.8807 110.51 86 111.891 86Z" fill="#878786"/>
<path d="M138.891 86C140.272 86 141.391 84.8807 141.391 83.5C141.391 82.1193 140.272 81 138.891 81C137.51 81 136.391 82.1193 136.391 83.5C136.391 84.8807 137.51 86 138.891 86Z" fill="#878786"/>
<path d="M3.89062 113C5.27134 113 6.39062 111.881 6.39062 110.5C6.39062 109.119 5.27134 108 3.89062 108C2.50991 108 1.39062 109.119 1.39062 110.5C1.39062 111.881 2.50991 113 3.89062 113Z" fill="#878786"/>
<path d="M30.8906 113C32.2713 113 33.3906 111.881 33.3906 110.5C33.3906 109.119 32.2713 108 30.8906 108C29.5099 108 28.3906 109.119 28.3906 110.5C28.3906 111.881 29.5099 113 30.8906 113Z" fill="#878786"/>
<path d="M57.8906 113C59.2713 113 60.3906 111.881 60.3906 110.5C60.3906 109.119 59.2713 108 57.8906 108C56.5099 108 55.3906 109.119 55.3906 110.5C55.3906 111.881 56.5099 113 57.8906 113Z" fill="#878786"/>
<path d="M84.8906 113C86.2713 113 87.3906 111.881 87.3906 110.5C87.3906 109.119 86.2713 108 84.8906 108C83.5099 108 82.3906 109.119 82.3906 110.5C82.3906 111.881 83.5099 113 84.8906 113Z" fill="#878786"/>
<path d="M111.891 113C113.272 113 114.391 111.881 114.391 110.5C114.391 109.119 113.272 108 111.891 108C110.51 108 109.391 109.119 109.391 110.5C109.391 111.881 110.51 113 111.891 113Z" fill="#878786"/>
<path d="M138.891 113C140.272 113 141.391 111.881 141.391 110.5C141.391 109.119 140.272 108 138.891 108C137.51 108 136.391 109.119 136.391 110.5C136.391 111.881 137.51 113 138.891 113Z" fill="#878786"/>
<path d="M3.89062 140C5.27134 140 6.39062 138.881 6.39062 137.5C6.39062 136.119 5.27134 135 3.89062 135C2.50991 135 1.39062 136.119 1.39062 137.5C1.39062 138.881 2.50991 140 3.89062 140Z" fill="#878786"/>
<path d="M30.8906 140C32.2713 140 33.3906 138.881 33.3906 137.5C33.3906 136.119 32.2713 135 30.8906 135C29.5099 135 28.3906 136.119 28.3906 137.5C28.3906 138.881 29.5099 140 30.8906 140Z" fill="#878786"/>
<path d="M57.8906 140C59.2713 140 60.3906 138.881 60.3906 137.5C60.3906 136.119 59.2713 135 57.8906 135C56.5099 135 55.3906 136.119 55.3906 137.5C55.3906 138.881 56.5099 140 57.8906 140Z" fill="#878786"/>
<path d="M84.8906 140C86.2713 140 87.3906 138.881 87.3906 137.5C87.3906 136.119 86.2713 135 84.8906 135C83.5099 135 82.3906 136.119 82.3906 137.5C82.3906 138.881 83.5099 140 84.8906 140Z" fill="#878786"/>
<path d="M111.891 140C113.272 140 114.391 138.881 114.391 137.5C114.391 136.119 113.272 135 111.891 135C110.51 135 109.391 136.119 109.391 137.5C109.391 138.881 110.51 140 111.891 140Z" fill="#878786"/>
<path d="M138.891 140C140.272 140 141.391 138.881 141.391 137.5C141.391 136.119 140.272 135 138.891 135C137.51 135 136.391 136.119 136.391 137.5C136.391 138.881 137.51 140 138.891 140Z" fill="#878786"/>
<path d="M3.89062 167C5.27134 167 6.39062 165.881 6.39062 164.5C6.39062 163.119 5.27134 162 3.89062 162C2.50991 162 1.39062 163.119 1.39062 164.5C1.39062 165.881 2.50991 167 3.89062 167Z" fill="#878786"/>
<path d="M30.8906 167C32.2713 167 33.3906 165.881 33.3906 164.5C33.3906 163.119 32.2713 162 30.8906 162C29.5099 162 28.3906 163.119 28.3906 164.5C28.3906 165.881 29.5099 167 30.8906 167Z" fill="#878786"/>
<path d="M57.8906 167C59.2713 167 60.3906 165.881 60.3906 164.5C60.3906 163.119 59.2713 162 57.8906 162C56.5099 162 55.3906 163.119 55.3906 164.5C55.3906 165.881 56.5099 167 57.8906 167Z" fill="#878786"/>
<path d="M84.8906 167C86.2713 167 87.3906 165.881 87.3906 164.5C87.3906 163.119 86.2713 162 84.8906 162C83.5099 162 82.3906 163.119 82.3906 164.5C82.3906 165.881 83.5099 167 84.8906 167Z" fill="#878786"/>
<path d="M111.891 167C113.272 167 114.391 165.881 114.391 164.5C114.391 163.119 113.272 162 111.891 162C110.51 162 109.391 163.119 109.391 164.5C109.391 165.881 110.51 167 111.891 167Z" fill="#878786"/>
<path d="M138.891 167C140.272 167 141.391 165.881 141.391 164.5C141.391 163.119 140.272 162 138.891 162C137.51 162 136.391 163.119 136.391 164.5C136.391 165.881 137.51 167 138.891 167Z" fill="#878786"/>
<path d="M3.89062 194C5.27134 194 6.39062 192.881 6.39062 191.5C6.39062 190.119 5.27134 189 3.89062 189C2.50991 189 1.39062 190.119 1.39062 191.5C1.39062 192.881 2.50991 194 3.89062 194Z" fill="#878786"/>
<path d="M30.8906 194C32.2713 194 33.3906 192.881 33.3906 191.5C33.3906 190.119 32.2713 189 30.8906 189C29.5099 189 28.3906 190.119 28.3906 191.5C28.3906 192.881 29.5099 194 30.8906 194Z" fill="#878786"/>
<path d="M57.8906 194C59.2713 194 60.3906 192.881 60.3906 191.5C60.3906 190.119 59.2713 189 57.8906 189C56.5099 189 55.3906 190.119 55.3906 191.5C55.3906 192.881 56.5099 194 57.8906 194Z" fill="#878786"/>
<path d="M84.8906 194C86.2713 194 87.3906 192.881 87.3906 191.5C87.3906 190.119 86.2713 189 84.8906 189C83.5099 189 82.3906 190.119 82.3906 191.5C82.3906 192.881 83.5099 194 84.8906 194Z" fill="#878786"/>
<path d="M111.891 194C113.272 194 114.391 192.881 114.391 191.5C114.391 190.119 113.272 189 111.891 189C110.51 189 109.391 190.119 109.391 191.5C109.391 192.881 110.51 194 111.891 194Z" fill="#878786"/>
<path d="M138.891 194C140.272 194 141.391 192.881 141.391 191.5C141.391 190.119 140.272 189 138.891 189C137.51 189 136.391 190.119 136.391 191.5C136.391 192.881 137.51 194 138.891 194Z" fill="#878786"/>
</g>
<defs>
<clipPath id="clip0_2003_395">
<rect width="141" height="194" fill="white" transform="translate(0.5)"/>
</clipPath>
</defs>
</svg>
