<svg width="38" height="39" viewBox="0 0 38 39" fill="none" xmlns="http://www.w3.org/2000/svg">
<path d="M23.0596 9.225C24.6495 9.53459 26.1106 10.3107 27.256 11.4539C28.4014 12.5971 29.1789 14.0554 29.4891 15.6422M23.0596 2.72656C26.3627 3.09281 29.4429 4.56915 31.7944 6.91319C34.1458 9.25723 35.6289 12.3296 36 15.626M34.3723 28.5903V33.4642C34.3741 33.9166 34.2813 34.3645 34.0997 34.779C33.918 35.1936 33.6517 35.5657 33.3176 35.8716C32.9836 36.1775 32.5892 36.4104 32.1598 36.5553C31.7304 36.7003 31.2753 36.7541 30.8239 36.7134C25.8151 36.1702 21.0038 34.4619 16.7766 31.7258C12.8438 29.2315 9.50941 25.9035 7.01031 21.9782C4.25943 17.7399 2.5475 12.9145 2.01321 7.89282C1.97254 7.44356 2.02603 6.99077 2.17029 6.56328C2.31454 6.13579 2.54641 5.74296 2.85111 5.4098C3.15581 5.07665 3.52667 4.81046 3.94009 4.6282C4.35351 4.44594 4.80042 4.3516 5.25237 4.35117H10.1355C10.9255 4.34341 11.6913 4.62261 12.2902 5.13672C12.8892 5.65084 13.2804 6.36479 13.391 7.1455C13.5971 8.70523 13.9793 10.2367 14.5304 11.7106C14.7494 12.2921 14.7968 12.9241 14.667 13.5316C14.5371 14.1392 14.2355 14.6969 13.7979 15.1386L11.7307 17.2018C14.0478 21.2691 17.4219 24.6368 21.497 26.9495L23.5642 24.8862C24.0068 24.4494 24.5655 24.1484 25.1742 24.0188C25.7829 23.8893 26.4161 23.9366 26.9987 24.1551C28.4755 24.7052 30.0099 25.0867 31.5726 25.2924C32.3633 25.4037 33.0854 25.8012 33.6016 26.4093C34.1178 27.0174 34.3921 27.7936 34.3723 28.5903Z" stroke="#1E1E1E" stroke-width="4" stroke-linecap="round" stroke-linejoin="round"/>
</svg>
