<svg width="30" height="29" viewBox="0 0 30 29" fill="none" xmlns="http://www.w3.org/2000/svg">
<path d="M14.9999 28.25C13.0638 28.25 11.2339 27.8891 9.51034 27.1672C7.78672 26.4453 6.28152 25.4599 4.99471 24.2109C3.7079 22.962 2.69263 21.501 1.94888 19.8281C1.20513 18.1552 0.833252 16.3792 0.833252 14.5C0.833252 12.5979 1.20513 10.8161 1.94888 9.15469C2.69263 7.49323 3.7079 6.03802 4.99471 4.78906C6.28152 3.5401 7.78672 2.55469 9.51034 1.83281C11.2339 1.11094 13.0638 0.75 14.9999 0.75C16.9596 0.75 18.7954 1.11094 20.5072 1.83281C22.219 2.55469 23.7183 3.5401 25.0051 4.78906C26.2919 6.03802 27.3072 7.49323 28.051 9.15469C28.7947 10.8161 29.1666 12.5979 29.1666 14.5C29.1666 16.3792 28.7947 18.1552 28.051 19.8281C27.3072 21.501 26.2919 22.962 25.0051 24.2109C23.7183 25.4599 22.219 26.4453 20.5072 27.1672C18.7954 27.8891 16.9596 28.25 14.9999 28.25ZM14.9999 25.4313C15.6138 24.6063 16.1451 23.7469 16.5937 22.8531C17.0423 21.9594 17.4083 21.0083 17.6916 20H12.3083C12.5916 21.0083 12.9576 21.9594 13.4062 22.8531C13.8548 23.7469 14.386 24.6063 14.9999 25.4313ZM11.3166 24.8813C10.8916 24.125 10.5197 23.3401 10.201 22.5266C9.88221 21.713 9.61659 20.8708 9.40409 20H5.22492C5.90964 21.1458 6.76554 22.1427 7.79263 22.9906C8.81971 23.8385 9.99436 24.4688 11.3166 24.8813ZM18.6833 24.8813C20.0055 24.4688 21.1801 23.8385 22.2072 22.9906C23.2343 22.1427 24.0902 21.1458 24.7749 20H20.5958C20.3833 20.8708 20.1176 21.713 19.7989 22.5266C19.4801 23.3401 19.1083 24.125 18.6833 24.8813ZM4.02075 17.25H8.83742C8.76659 16.7917 8.71346 16.3391 8.67804 15.8922C8.64263 15.4453 8.62492 14.9812 8.62492 14.5C8.62492 14.0188 8.64263 13.5547 8.67804 13.1078C8.71346 12.6609 8.76659 12.2083 8.83742 11.75H4.02075C3.9027 12.2083 3.81415 12.6609 3.75513 13.1078C3.6961 13.5547 3.66659 14.0188 3.66659 14.5C3.66659 14.9812 3.6961 15.4453 3.75513 15.8922C3.81415 16.3391 3.9027 16.7917 4.02075 17.25ZM11.6708 17.25H18.3291C18.3999 16.7917 18.453 16.3391 18.4885 15.8922C18.5239 15.4453 18.5416 14.9812 18.5416 14.5C18.5416 14.0188 18.5239 13.5547 18.4885 13.1078C18.453 12.6609 18.3999 12.2083 18.3291 11.75H11.6708C11.5999 12.2083 11.5468 12.6609 11.5114 13.1078C11.476 13.5547 11.4583 14.0188 11.4583 14.5C11.4583 14.9812 11.476 15.4453 11.5114 15.8922C11.5468 16.3391 11.5999 16.7917 11.6708 17.25ZM21.1624 17.25H25.9791C26.0971 16.7917 26.1857 16.3391 26.2447 15.8922C26.3037 15.4453 26.3333 14.9812 26.3333 14.5C26.3333 14.0188 26.3037 13.5547 26.2447 13.1078C26.1857 12.6609 26.0971 12.2083 25.9791 11.75H21.1624C21.2333 12.2083 21.2864 12.6609 21.3218 13.1078C21.3572 13.5547 21.3749 14.0188 21.3749 14.5C21.3749 14.9812 21.3572 15.4453 21.3218 15.8922C21.2864 16.3391 21.2333 16.7917 21.1624 17.25ZM20.5958 9H24.7749C24.0902 7.85417 23.2343 6.85729 22.2072 6.00938C21.1801 5.16146 20.0055 4.53125 18.6833 4.11875C19.1083 4.875 19.4801 5.6599 19.7989 6.47344C20.1176 7.28698 20.3833 8.12917 20.5958 9ZM12.3083 9H17.6916C17.4083 7.99167 17.0423 7.04062 16.5937 6.14687C16.1451 5.25312 15.6138 4.39375 14.9999 3.56875C14.386 4.39375 13.8548 5.25312 13.4062 6.14687C12.9576 7.04062 12.5916 7.99167 12.3083 9ZM5.22492 9H9.40409C9.61659 8.12917 9.88221 7.28698 10.201 6.47344C10.5197 5.6599 10.8916 4.875 11.3166 4.11875C9.99436 4.53125 8.81971 5.16146 7.79263 6.00938C6.76554 6.85729 5.90964 7.85417 5.22492 9Z" fill="#1D1B20"/>
</svg>
